<svg width="542" height="641" viewBox="0 0 542 641" fill="none" xmlns="http://www.w3.org/2000/svg">
<path d="M461.93 79.6693C356.05 -26.2107 184.16 -26.6107 78.7698 78.7693C-26.6102 184.149 -26.2102 356.049 79.6698 461.929L96.6398 478.899V271.209C96.6398 175.299 174.7 97.2693 270.64 97.2693C366.58 97.2693 444.64 175.299 444.64 271.209C444.64 367.119 366.58 445.149 270.64 445.149C228.63 445.149 190.05 430.189 159.96 405.329V542.219L236.76 619.019C256.05 638.309 278.08 650.479 297.28 631.279V540.439C357.79 534.839 416.69 508.959 462.83 462.819C568.21 357.439 567.81 185.539 461.93 79.6593V79.6693Z" fill="black"/>
<path d="M381.33 271.209C381.33 210.199 331.68 160.559 270.65 160.559C209.62 160.559 159.97 210.199 159.97 271.209C159.97 332.219 209.62 381.859 270.65 381.859C331.68 381.859 381.33 332.219 381.33 271.209Z" fill="black"/>
</svg>
