<svg width="1428" height="423" viewBox="0 0 1428 423" fill="none" xmlns="http://www.w3.org/2000/svg">
<path d="M441.721 102.289C383.351 102.289 335.861 149.779 335.861 208.149C335.861 266.519 383.351 313.999 441.721 313.999C470.001 313.999 496.591 302.989 516.571 282.989C523.991 275.569 523.981 263.539 516.571 256.119C509.151 248.699 497.121 248.709 489.701 256.119C476.891 268.929 459.861 275.989 441.731 275.989C404.311 275.989 373.871 245.549 373.871 208.139C373.871 170.729 404.311 140.279 441.731 140.279C472.551 140.279 498.641 160.939 506.871 189.139H441.731C431.241 189.139 422.731 197.649 422.731 208.139C422.731 218.629 431.241 227.139 441.731 227.139H528.581C539.071 227.139 547.581 218.629 547.581 208.139C547.581 149.769 500.101 102.279 441.731 102.279L441.721 102.289Z" fill="url(#paint0_linear_597_20626)"/>
<path d="M349.521 121.289C349.521 110.799 341.011 102.289 330.521 102.289C304.721 102.289 281.051 111.569 262.661 126.969V121.289C262.661 110.799 254.151 102.289 243.661 102.289C233.171 102.289 224.661 110.799 224.661 121.289V294.999C224.661 305.489 233.171 313.999 243.661 313.999C254.151 313.999 262.661 305.489 262.661 294.999V208.139C262.661 170.719 293.101 140.279 330.521 140.279C341.011 140.279 349.521 131.769 349.521 121.279V121.289Z" fill="url(#paint1_linear_597_20626)"/>
<path d="M1147.95 102.289C1099.66 102.289 1060.38 141.579 1060.38 189.859V294.999C1060.38 305.489 1068.89 313.999 1079.38 313.999C1089.87 313.999 1098.38 305.489 1098.38 294.999V189.859C1098.38 162.529 1120.62 140.289 1147.95 140.289C1175.28 140.289 1197.52 162.529 1197.52 189.859V294.999C1197.52 305.489 1206.03 313.999 1216.52 313.999C1227.01 313.999 1235.52 305.489 1235.52 294.999V189.859C1235.52 141.569 1196.24 102.289 1147.95 102.289Z" fill="url(#paint2_linear_597_20626)"/>
<path d="M1010.43 125.151C999.939 125.151 991.429 133.661 991.429 144.151V295.001C991.429 305.491 999.939 314.001 1010.43 314.001C1020.92 314.001 1029.43 305.491 1029.43 295.001V144.151C1029.43 133.661 1020.92 125.151 1010.43 125.151Z" fill="url(#paint3_linear_597_20626)"/>
<path d="M104.43 0C46.85 0 0 46.85 0 104.43V295C0 305.49 8.51 314 19 314C29.49 314 38 305.49 38 295V184.95C56.06 199.88 79.22 208.86 104.43 208.86C162.01 208.86 208.86 162.01 208.86 104.43C208.86 46.85 162.01 0 104.43 0ZM104.43 170.86C67.8 170.86 38 141.06 38 104.43C38 67.8 67.8 38 104.43 38C141.06 38 170.86 67.8 170.86 104.43C170.86 141.06 141.06 170.86 104.43 170.86Z" fill="url(#paint4_linear_597_20626)"/>
<path d="M661.521 174.571C672.011 174.571 680.521 166.061 680.521 155.571C680.521 145.081 672.011 136.571 661.521 136.571H607.381V84.7111C607.381 74.2211 598.871 65.7111 588.381 65.7111C577.891 65.7111 569.381 74.2211 569.381 84.7111V221.851C569.381 272.661 610.711 313.991 661.521 313.991C672.011 313.991 680.521 305.481 680.521 294.991C680.521 284.501 672.011 275.991 661.521 275.991C631.671 275.991 607.381 251.701 607.381 221.851V174.561H661.521V174.571Z" fill="url(#paint5_linear_597_20626)"/>
<path d="M787.972 174.571C798.462 174.571 806.972 166.061 806.972 155.571C806.972 145.081 798.462 136.571 787.972 136.571H733.832V84.7111C733.832 74.2211 725.322 65.7111 714.832 65.7111C704.342 65.7111 695.832 74.2211 695.832 84.7111V221.851C695.832 272.661 737.162 313.991 787.972 313.991C798.462 313.991 806.972 305.481 806.972 294.991C806.972 284.501 798.462 275.991 787.972 275.991C758.122 275.991 733.832 251.701 733.832 221.851V174.561H787.972V174.571Z" fill="url(#paint6_linear_597_20626)"/>
<path d="M940.781 136.57C930.291 136.57 921.781 145.08 921.781 155.57V273.73C886.211 265.15 859.691 233.08 859.691 194.91V155.57C859.691 145.08 851.181 136.57 840.691 136.57C830.201 136.57 821.691 145.08 821.691 155.57V194.91C821.691 254.11 865.111 303.35 921.781 312.48V326.51C921.781 358.41 895.831 384.36 863.931 384.36C853.441 384.36 844.931 392.87 844.931 403.36C844.931 413.85 853.441 422.36 863.931 422.36C916.781 422.36 959.781 379.36 959.781 326.51V155.57C959.781 145.08 951.271 136.57 940.781 136.57Z" fill="url(#paint7_linear_597_20626)"/>
<path d="M1339.25 113.529C1290.85 113.529 1251.48 152.909 1251.48 201.299C1251.48 249.689 1290.86 289.069 1339.25 289.069C1357.72 289.069 1374.87 283.329 1389.02 273.549V326.499C1389.02 358.399 1363.07 384.349 1331.17 384.349C1320.68 384.349 1312.17 392.859 1312.17 403.349C1312.17 413.839 1320.68 422.349 1331.17 422.349C1384.02 422.349 1427.02 379.349 1427.02 326.499V201.299C1427.02 152.899 1387.64 113.529 1339.25 113.529ZM1339.25 251.079C1311.81 251.079 1289.48 228.749 1289.48 201.309C1289.48 173.869 1311.81 151.539 1339.25 151.539C1366.69 151.539 1389.02 173.869 1389.02 201.309C1389.02 228.749 1366.69 251.079 1339.25 251.079Z" fill="url(#paint8_linear_597_20626)"/>
<path d="M988.798 52.5004C976.944 64.3548 976.989 83.6908 988.899 95.6009L1006.57 113.272C1008.74 115.441 1011.22 116.811 1013.38 114.651C1013.38 110.654 1013.38 107.085 1013.38 104.433C1020.18 103.803 1026.81 100.892 1032 95.7018C1043.85 83.8474 1043.81 64.5114 1031.9 52.6013C1019.99 40.6913 1000.65 40.646 988.798 52.5004Z" fill="url(#paint9_linear_597_20626)"/>
<defs>
<linearGradient id="paint0_linear_597_20626" x1="-4.979" y1="211.18" x2="1760.5" y2="211.18" gradientUnits="userSpaceOnUse">
<stop stop-color="#0077FF"/>
<stop offset="1" stop-color="#32F3FF"/>
</linearGradient>
<linearGradient id="paint1_linear_597_20626" x1="-4.979" y1="211.18" x2="1760.5" y2="211.18" gradientUnits="userSpaceOnUse">
<stop stop-color="#0077FF"/>
<stop offset="1" stop-color="#32F3FF"/>
</linearGradient>
<linearGradient id="paint2_linear_597_20626" x1="-4.979" y1="211.18" x2="1760.5" y2="211.18" gradientUnits="userSpaceOnUse">
<stop stop-color="#0077FF"/>
<stop offset="1" stop-color="#32F3FF"/>
</linearGradient>
<linearGradient id="paint3_linear_597_20626" x1="-4.979" y1="211.18" x2="1760.5" y2="211.18" gradientUnits="userSpaceOnUse">
<stop stop-color="#0077FF"/>
<stop offset="1" stop-color="#32F3FF"/>
</linearGradient>
<linearGradient id="paint4_linear_597_20626" x1="-4.979" y1="211.18" x2="1760.5" y2="211.18" gradientUnits="userSpaceOnUse">
<stop stop-color="#0077FF"/>
<stop offset="1" stop-color="#32F3FF"/>
</linearGradient>
<linearGradient id="paint5_linear_597_20626" x1="-4.979" y1="211.18" x2="1760.5" y2="211.18" gradientUnits="userSpaceOnUse">
<stop stop-color="#0077FF"/>
<stop offset="1" stop-color="#32F3FF"/>
</linearGradient>
<linearGradient id="paint6_linear_597_20626" x1="-4.979" y1="211.18" x2="1760.5" y2="211.18" gradientUnits="userSpaceOnUse">
<stop stop-color="#0077FF"/>
<stop offset="1" stop-color="#32F3FF"/>
</linearGradient>
<linearGradient id="paint7_linear_597_20626" x1="-4.979" y1="211.18" x2="1760.5" y2="211.18" gradientUnits="userSpaceOnUse">
<stop stop-color="#0077FF"/>
<stop offset="1" stop-color="#32F3FF"/>
</linearGradient>
<linearGradient id="paint8_linear_597_20626" x1="-4.979" y1="211.18" x2="1760.5" y2="211.18" gradientUnits="userSpaceOnUse">
<stop stop-color="#0077FF"/>
<stop offset="1" stop-color="#32F3FF"/>
</linearGradient>
<linearGradient id="paint9_linear_597_20626" x1="-4.979" y1="211.18" x2="1760.5" y2="211.18" gradientUnits="userSpaceOnUse">
<stop stop-color="#0077FF"/>
<stop offset="1" stop-color="#32F3FF"/>
</linearGradient>
</defs>
</svg>
