<svg width="376" height="113" viewBox="0 0 376 113" fill="none" xmlns="http://www.w3.org/2000/svg">
<path d="M116.387 27.8766C101.008 27.8766 88.4948 40.3896 88.4948 55.7693C88.4948 71.149 101.008 83.6593 116.387 83.6593C123.839 83.6593 130.845 80.7583 136.109 75.4886C138.064 73.5335 138.062 70.3638 136.109 68.4087C134.154 66.4536 130.985 66.4563 129.029 68.4087C125.654 71.784 121.167 73.6442 116.39 73.6442C106.53 73.6442 98.5099 65.6237 98.5099 55.7666C98.5099 45.9096 106.53 37.8865 116.39 37.8865C124.511 37.8865 131.385 43.3301 133.554 50.7604H116.39C113.626 50.7604 111.384 53.0027 111.384 55.7666C111.384 58.5306 113.626 60.7729 116.39 60.7729H139.274C142.038 60.7729 144.28 58.5306 144.28 55.7666C144.28 40.387 131.77 27.874 116.39 27.874L116.387 27.8766Z" fill="white"/>
<path d="M92.0939 32.8828C92.0939 30.1188 89.8516 27.8766 87.0877 27.8766C80.2897 27.8766 74.053 30.3217 69.2075 34.3794V32.8828C69.2075 30.1188 66.9653 27.8766 64.2013 27.8766C61.4373 27.8766 59.1951 30.1188 59.1951 32.8828V78.653C59.1951 81.4169 61.4373 83.6592 64.2013 83.6592C66.9653 83.6592 69.2075 81.4169 69.2075 78.653V55.7666C69.2075 45.9069 77.228 37.8864 87.0877 37.8864C89.8516 37.8864 92.0939 35.6442 92.0939 32.8802V32.8828Z" fill="white"/>
<path d="M302.469 27.8766C289.745 27.8766 279.396 38.229 279.396 50.9501V78.653C279.396 81.4169 281.638 83.6592 284.402 83.6592C287.166 83.6592 289.408 81.4169 289.408 78.653V50.9501C289.408 43.749 295.268 37.8891 302.469 37.8891C309.67 37.8891 315.53 43.749 315.53 50.9501V78.653C315.53 81.4169 317.772 83.6592 320.536 83.6592C323.3 83.6592 325.543 81.4169 325.543 78.653V50.9501C325.543 38.2263 315.193 27.8766 302.469 27.8766Z" fill="white"/>
<path d="M266.234 33.9002C263.47 33.9002 261.228 36.1425 261.228 38.9065V78.6533C261.228 81.4173 263.47 83.6596 266.234 83.6596C268.998 83.6596 271.24 81.4173 271.24 78.6533V38.9065C271.24 36.1425 268.998 33.9002 266.234 33.9002Z" fill="white"/>
<path d="M27.5159 0.924805C12.3443 0.924805 0 13.2691 0 28.4407V78.6532C0 81.4172 2.24227 83.6594 5.00624 83.6594C7.7702 83.6594 10.0125 81.4172 10.0125 78.6532V49.6565C14.771 53.5904 20.8734 55.9565 27.5159 55.9565C42.6874 55.9565 55.0317 43.6122 55.0317 28.4407C55.0317 13.2691 42.6874 0.924805 27.5159 0.924805ZM27.5159 45.944C17.8644 45.944 10.0125 38.0921 10.0125 28.4407C10.0125 18.7892 17.8644 10.9373 27.5159 10.9373C37.1673 10.9373 45.0192 18.7892 45.0192 28.4407C45.0192 38.0921 37.1673 45.944 27.5159 45.944Z" fill="white"/>
<path d="M174.302 46.9219C177.066 46.9219 179.308 44.6796 179.308 41.9156C179.308 39.1516 177.066 36.9094 174.302 36.9094H160.036V23.245C160.036 20.481 157.794 18.2388 155.03 18.2388C152.266 18.2388 150.024 20.481 150.024 23.245V59.3795C150.024 72.7672 160.914 83.6571 174.302 83.6571C177.066 83.6571 179.308 81.4148 179.308 78.6508C179.308 75.8869 177.066 73.6446 174.302 73.6446C166.436 73.6446 160.036 67.2445 160.036 59.3795V46.9192H174.302V46.9219Z" fill="white"/>
<path d="M207.62 46.9219C210.384 46.9219 212.626 44.6796 212.626 41.9156C212.626 39.1516 210.384 36.9094 207.62 36.9094H193.354V23.245C193.354 20.481 191.112 18.2388 188.348 18.2388C185.584 18.2388 183.342 20.481 183.342 23.245V59.3795C183.342 72.7672 194.232 83.6571 207.62 83.6571C210.384 83.6571 212.626 81.4148 212.626 78.6508C212.626 75.8869 210.384 73.6446 207.62 73.6446C199.755 73.6446 193.354 67.2445 193.354 59.3795V46.9192H207.62V46.9219Z" fill="white"/>
<path d="M247.883 36.9092C245.119 36.9092 242.876 39.1515 242.876 41.9154V73.049C233.504 70.7882 226.517 62.3382 226.517 52.281V41.9154C226.517 39.1515 224.274 36.9092 221.51 36.9092C218.746 36.9092 216.504 39.1515 216.504 41.9154V52.281C216.504 67.8794 227.945 80.8534 242.876 83.259V86.9558C242.876 95.361 236.039 102.198 227.634 102.198C224.87 102.198 222.628 104.441 222.628 107.205C222.628 109.969 224.87 112.211 227.634 112.211C241.559 112.211 252.889 100.881 252.889 86.9558V41.9154C252.889 39.1515 250.647 36.9092 247.883 36.9092Z" fill="white"/>
<path d="M352.874 30.8382C340.121 30.8382 329.748 41.2143 329.748 53.9644C329.748 66.7145 340.124 77.0906 352.874 77.0906C357.741 77.0906 362.259 75.5782 365.988 73.0013V86.9528C365.988 95.3581 359.15 102.196 350.745 102.196C347.981 102.196 345.739 104.438 345.739 107.202C345.739 109.966 347.981 112.208 350.745 112.208C364.67 112.208 376 100.878 376 86.9528V53.9644C376 41.2117 365.624 30.8382 352.874 30.8382ZM352.874 67.0807C345.644 67.0807 339.76 61.1971 339.76 53.967C339.76 46.737 345.644 40.8533 352.874 40.8533C360.104 40.8533 365.988 46.737 365.988 53.967C365.988 61.1971 360.104 67.0807 352.874 67.0807Z" fill="white"/>
<path d="M260.535 14.7579C257.411 17.8814 257.423 22.9762 260.561 26.1143L265.217 30.7703C265.789 31.342 266.442 31.7028 267.011 31.1337C267.011 30.0806 267.011 29.1403 267.011 28.4413C268.804 28.2753 270.55 27.5084 271.918 26.1409C275.041 23.0174 275.029 17.9227 271.891 14.7845C268.753 11.6464 263.658 11.6345 260.535 14.7579Z" fill="white"/>
</svg>
